<svg width="1200" height="900" viewBox="0 0 1200 900" fill="none" xmlns="http://www.w3.org/2000/svg" role="img" aria-label="Church community illustration">
  <defs>
    <linearGradient id="a" x1="80" y1="60" x2="1040" y2="860" gradientUnits="userSpaceOnUse">
      <stop stop-color="#F8F1E5"/>
      <stop offset="0.55" stop-color="#E7D7BF"/>
      <stop offset="1" stop-color="#D7E1D7"/>
    </linearGradient>
  </defs>
  <rect width="1200" height="900" rx="48" fill="url(#a)"/>
  <path d="M0 580C152 548 263 494 399 507C579 523 686 678 832 689C936 696 1055 648 1200 560V900H0V580Z" fill="#223149" fill-opacity="0.1"/>
  <rect x="150" y="180" width="900" height="560" rx="36" fill="#FFF8EF" fill-opacity="0.72" stroke="#FFFFFF" stroke-opacity="0.82" stroke-width="4"/>
  <rect x="260" y="250" width="680" height="360" rx="26" fill="#223149" fill-opacity="0.1"/>
  <path d="M395 473L517 362L639 473V611H395V473Z" fill="#F9F1E6"/>
  <path d="M520 473H586V611H520V473Z" fill="#D9BE95"/>
  <path d="M478 512H516V572H478V512Z" fill="#DFC9A6"/>
  <path d="M589 512H627V572H589V512Z" fill="#DFC9A6"/>
  <path d="M536 387H571V448H536V387Z" fill="#D9BE95"/>
  <path d="M517 409H591V424H517V409Z" fill="#D9BE95"/>
  <circle cx="764" cy="401" r="84" fill="#FFF" fill-opacity="0.54"/>
  <circle cx="742" cy="401" r="57" fill="#E4C69A"/>
  <circle cx="736" cy="394" r="22" fill="#223149" fill-opacity="0.16"/>
  <path d="M670 562C670 511 711 470 762 470H805C856 470 897 511 897 562V613H670V562Z" fill="#FFF" fill-opacity="0.54"/>
  <circle cx="341" cy="392" r="57" fill="#E4C69A"/>
  <circle cx="336" cy="385" r="20" fill="#223149" fill-opacity="0.16"/>
  <path d="M267 539C267 494 304 457 349 457H381C426 457 463 494 463 539V613H267V539Z" fill="#FFF" fill-opacity="0.54"/>
  <circle cx="278" cy="677" r="34" fill="#8AA18F"/>
  <circle cx="925" cy="230" r="38" fill="#8AA18F"/>
</svg>